<svg width="1367" height="731" xmlns="http://www.w3.org/2000/svg" xmlns:xlink="http://www.w3.org/1999/xlink" overflow="hidden"><defs><clipPath id="clip0"><rect x="-15" y="-34" width="1367" height="731"/></clipPath></defs><g clip-path="url(#clip0)" transform="translate(15 34)"><path d="M444.5 645C444.5 640.858 447.858 637.5 452 637.5L825 637.5C829.142 637.5 832.5 640.858 832.5 645L832.5 675C832.5 679.142 829.142 682.5 825 682.5L452 682.5C447.858 682.5 444.5 679.142 444.5 675Z" stroke="#404040" stroke-width="1.33333" stroke-miterlimit="8" fill="#F2F2F2" fill-rule="evenodd"/><path d="M262.724 265.5 319.5 489.5 114.5 489.5 262.724 265.5Z" stroke="#FDDBDB" stroke-width="1.33333" stroke-miterlimit="8" fill="#FCE0E0" fill-rule="evenodd"/><path d="M272.772 477.024 272.772 489.046C272.772 490.507 272.624 491.934 272.342 493.311L271.879 494.804 272.772 477.024Z" fill="#DEEBF7" fill-rule="evenodd"/><path d="M607.852 140 623.331 154.999 638.794 140.015 838 473.631 817.889 474.73 819.185 497 426.468 497 429.752 476.083 409 473.023Z" fill="#DEEBF7" fill-rule="evenodd"/><path d="M607 146C607 137.716 614.387 131 623.5 131 632.613 131 640 137.716 640 146 640 154.284 632.613 161 623.5 161 614.387 161 607 154.284 607 146Z" fill="#DEEBF7" fill-rule="evenodd"/><path d="M407 481C407 472.163 414.387 465 423.5 465 432.613 465 440 472.163 440 481 440 489.837 432.613 497 423.5 497 414.387 497 407 489.837 407 481Z" fill="#DEEBF7" fill-rule="evenodd"/><path d="M805 481C805 472.163 812.611 465 822 465 831.389 465 839 472.163 839 481 839 489.837 831.389 497 822 497 812.611 497 805 489.837 805 481Z" fill="#DEEBF7" fill-rule="evenodd"/><path d="M0 0 600.973 1.58404" stroke="#000000" stroke-width="1.33333" stroke-miterlimit="8" stroke-dasharray="4 1.33333" fill="none" fill-rule="evenodd" transform="matrix(-1 0 0 1 707.473 32.5001)"/><text font-family="SimSun,SimSun_MSFontService,sans-serif" font-weight="400" font-size="32" transform="translate(27.6626 48)">开始<tspan font-size="32" x="-8.07822" y="147">第</tspan><tspan font-size="32" x="23.9218" y="147">0</tspan>行</text><path d="M748.5 33.5C748.5 21.9021 758.126 12.5001 770 12.5001 781.874 12.5001 791.5 21.9021 791.5 33.5 791.5 45.098 781.874 54.5 770 54.5 758.126 54.5 748.5 45.098 748.5 33.5Z" stroke="#000000" stroke-width="3" stroke-miterlimit="8" fill="none" fill-rule="evenodd"/><path d="M0 0 383.488 129.176" stroke="#000000" stroke-width="2" stroke-miterlimit="8" fill="none" fill-rule="evenodd" transform="matrix(-1 0 0 1 748.488 33)"/><path d="M0 0 113.73 114.212" stroke="#000000" stroke-width="2" stroke-miterlimit="8" fill="none" fill-rule="evenodd" transform="matrix(-1 0 0 1 754.73 48)"/><path d="M785 48 887.374 162.212" stroke="#000000" stroke-width="2" stroke-miterlimit="8" fill="none" fill-rule="evenodd"/><path d="M790 33 1163.17 162.176" stroke="#000000" stroke-width="2" stroke-miterlimit="8" fill="none" fill-rule="evenodd"/><path d="M329.5 178C329.5 166.126 338.902 156.5 350.5 156.5 362.098 156.5 371.5 166.126 371.5 178 371.5 189.874 362.098 199.5 350.5 199.5 338.902 199.5 329.5 189.874 329.5 178Z" stroke="#000000" stroke-width="3" stroke-miterlimit="8" fill="none" fill-rule="evenodd"/><path d="M230.5 327.5C230.5 315.902 240.126 306.5 252 306.5 263.874 306.5 273.5 315.902 273.5 327.5 273.5 339.098 263.874 348.5 252 348.5 240.126 348.5 230.5 339.098 230.5 327.5Z" stroke="#000000" stroke-width="3" stroke-miterlimit="8" fill="none" fill-rule="evenodd"/><path d="M290.5 328.5C290.5 316.902 299.902 307.5 311.5 307.5 323.098 307.5 332.5 316.902 332.5 328.5 332.5 340.098 323.098 349.5 311.5 349.5 299.902 349.5 290.5 340.098 290.5 328.5Z" stroke="#000000" stroke-width="3" stroke-miterlimit="8" fill="none" fill-rule="evenodd"/><path d="M349.5 329.5C349.5 317.902 358.902 308.5 370.5 308.5 382.098 308.5 391.5 317.902 391.5 329.5 391.5 341.098 382.098 350.5 370.5 350.5 358.902 350.5 349.5 341.098 349.5 329.5Z" stroke="#000000" stroke-width="3" stroke-miterlimit="8" fill="none" fill-rule="evenodd"/><path d="M409.5 331C409.5 319.126 418.902 309.5 430.5 309.5 442.098 309.5 451.5 319.126 451.5 331 451.5 342.874 442.098 352.5 430.5 352.5 418.902 352.5 409.5 342.874 409.5 331Z" stroke="#000000" stroke-width="3" stroke-miterlimit="8" fill="none" fill-rule="evenodd"/><path d="M0 0 83.3597 113.658" stroke="#000000" stroke-width="2" stroke-miterlimit="8" fill="none" fill-rule="evenodd" transform="matrix(-1 0 0 1 335.36 192)"/><path d="M352 199 372.387 308.534" stroke="#000000" stroke-width="2" stroke-miterlimit="8" fill="none" fill-rule="evenodd"/><path d="M0 0 31.9572 109.534" stroke="#000000" stroke-width="2" stroke-miterlimit="8" fill="none" fill-rule="evenodd" transform="matrix(-1 0 0 1 342.957 198)"/><path d="M366 192 429.567 308.769" stroke="#000000" stroke-width="2" stroke-miterlimit="8" fill="none" fill-rule="evenodd"/><path d="M0 0 80.8796 117.186" stroke="#000000" stroke-width="2" stroke-miterlimit="8" fill="none" fill-rule="evenodd" transform="matrix(-1 0 0 1 239.88 346)"/><path d="M0 0 62.9671 114.903" stroke="#000000" stroke-width="2" stroke-miterlimit="8" fill="none" fill-rule="evenodd" transform="matrix(-1 0 0 1 245.967 348)"/><path d="M0 0 44.591 114.903" stroke="#000000" stroke-width="2" stroke-miterlimit="8" fill="none" fill-rule="evenodd" transform="matrix(-1 0 0 1 251.591 348)"/><path d="M607.5 178.5C607.5 166.902 616.902 157.5 628.5 157.5 640.098 157.5 649.5 166.902 649.5 178.5 649.5 190.098 640.098 199.5 628.5 199.5 616.902 199.5 607.5 190.098 607.5 178.5Z" stroke="#000000" stroke-width="3" stroke-miterlimit="8" fill="none" fill-rule="evenodd"/><path d="M509.5 328C509.5 316.126 518.902 306.5 530.5 306.5 542.098 306.5 551.5 316.126 551.5 328 551.5 339.874 542.098 349.5 530.5 349.5 518.902 349.5 509.5 339.874 509.5 328Z" stroke="#000000" stroke-width="3" stroke-miterlimit="8" fill="none" fill-rule="evenodd"/><path d="M568.5 329C568.5 317.126 577.902 307.5 589.5 307.5 601.098 307.5 610.5 317.126 610.5 329 610.5 340.874 601.098 350.5 589.5 350.5 577.902 350.5 568.5 340.874 568.5 329Z" stroke="#000000" stroke-width="3" stroke-miterlimit="8" fill="none" fill-rule="evenodd"/><path d="M627.5 330C627.5 318.126 637.126 308.5 649 308.5 660.874 308.5 670.5 318.126 670.5 330 670.5 341.874 660.874 351.5 649 351.5 637.126 351.5 627.5 341.874 627.5 330Z" stroke="#000000" stroke-width="3" stroke-miterlimit="8" fill="none" fill-rule="evenodd"/><path d="M687.5 331C687.5 319.126 696.902 309.5 708.5 309.5 720.098 309.5 729.5 319.126 729.5 331 729.5 342.874 720.098 352.5 708.5 352.5 696.902 352.5 687.5 342.874 687.5 331Z" stroke="#000000" stroke-width="3" stroke-miterlimit="8" fill="none" fill-rule="evenodd"/><path d="M0 0 83.3597 113.658" stroke="#000000" stroke-width="2" stroke-miterlimit="8" fill="none" fill-rule="evenodd" transform="matrix(-1 0 0 1 613.36 193)"/><path d="M630 199 650.387 308.534" stroke="#000000" stroke-width="2" stroke-miterlimit="8" fill="none" fill-rule="evenodd"/><path d="M0 0 31.9572 109.534" stroke="#000000" stroke-width="2" stroke-miterlimit="8" fill="none" fill-rule="evenodd" transform="matrix(-1 0 0 1 620.957 198)"/><path d="M644 193 707.567 309.769" stroke="#000000" stroke-width="2" stroke-miterlimit="8" fill="none" fill-rule="evenodd"/><path d="M867.5 184.5C867.5 172.902 876.902 163.5 888.5 163.5 900.098 163.5 909.5 172.902 909.5 184.5 909.5 196.098 900.098 205.5 888.5 205.5 876.902 205.5 867.5 196.098 867.5 184.5Z" stroke="#000000" stroke-width="3" stroke-miterlimit="8" fill="none" fill-rule="evenodd"/><path d="M768.5 334C768.5 322.126 778.126 312.5 790 312.5 801.874 312.5 811.5 322.126 811.5 334 811.5 345.874 801.874 355.5 790 355.5 778.126 355.5 768.5 345.874 768.5 334Z" stroke="#000000" stroke-width="3" stroke-miterlimit="8" fill="none" fill-rule="evenodd"/><path d="M828.5 335C828.5 323.126 837.902 313.5 849.5 313.5 861.098 313.5 870.5 323.126 870.5 335 870.5 346.874 861.098 356.5 849.5 356.5 837.902 356.5 828.5 346.874 828.5 335Z" stroke="#000000" stroke-width="3" stroke-miterlimit="8" fill="none" fill-rule="evenodd"/><path d="M887.5 336C887.5 324.126 896.902 314.5 908.5 314.5 920.098 314.5 929.5 324.126 929.5 336 929.5 347.874 920.098 357.5 908.5 357.5 896.902 357.5 887.5 347.874 887.5 336Z" stroke="#000000" stroke-width="3" stroke-miterlimit="8" fill="none" fill-rule="evenodd"/><path d="M946.5 337C946.5 325.126 956.126 315.5 968 315.5 979.874 315.5 989.5 325.126 989.5 337 989.5 348.874 979.874 358.5 968 358.5 956.126 358.5 946.5 348.874 946.5 337Z" stroke="#000000" stroke-width="3" stroke-miterlimit="8" fill="none" fill-rule="evenodd"/><path d="M0 0 83.3597 113.658" stroke="#000000" stroke-width="2" stroke-miterlimit="8" fill="none" fill-rule="evenodd" transform="matrix(-1 0 0 1 872.36 199)"/><path d="M890 205 910.387 314.534" stroke="#000000" stroke-width="2" stroke-miterlimit="8" fill="none" fill-rule="evenodd"/><path d="M0 0 31.9572 109.534" stroke="#000000" stroke-width="2" stroke-miterlimit="8" fill="none" fill-rule="evenodd" transform="matrix(-1 0 0 1 880.957 204)"/><path d="M904 199 967.567 315.769" stroke="#000000" stroke-width="2" stroke-miterlimit="8" fill="none" fill-rule="evenodd"/><path d="M1148.5 184.5C1148.5 172.902 1158.13 163.5 1170 163.5 1181.87 163.5 1191.5 172.902 1191.5 184.5 1191.5 196.098 1181.87 205.5 1170 205.5 1158.13 205.5 1148.5 196.098 1148.5 184.5Z" stroke="#000000" stroke-width="3" stroke-miterlimit="8" fill="none" fill-rule="evenodd"/><path d="M1050.5 334C1050.5 322.126 1059.9 312.5 1071.5 312.5 1083.1 312.5 1092.5 322.126 1092.5 334 1092.5 345.874 1083.1 355.5 1071.5 355.5 1059.9 355.5 1050.5 345.874 1050.5 334Z" stroke="#000000" stroke-width="3" stroke-miterlimit="8" fill="none" fill-rule="evenodd"/><path d="M1109.5 335C1109.5 323.126 1119.13 313.5 1131 313.5 1142.87 313.5 1152.5 323.126 1152.5 335 1152.5 346.874 1142.87 356.5 1131 356.5 1119.13 356.5 1109.5 346.874 1109.5 335Z" stroke="#000000" stroke-width="3" stroke-miterlimit="8" fill="none" fill-rule="evenodd"/><path d="M1169.5 336C1169.5 324.126 1178.9 314.5 1190.5 314.5 1202.1 314.5 1211.5 324.126 1211.5 336 1211.5 347.874 1202.1 357.5 1190.5 357.5 1178.9 357.5 1169.5 347.874 1169.5 336Z" stroke="#000000" stroke-width="3" stroke-miterlimit="8" fill="none" fill-rule="evenodd"/><path d="M1228.5 337C1228.5 325.126 1237.9 315.5 1249.5 315.5 1261.1 315.5 1270.5 325.126 1270.5 337 1270.5 348.874 1261.1 358.5 1249.5 358.5 1237.9 358.5 1228.5 348.874 1228.5 337Z" stroke="#000000" stroke-width="3" stroke-miterlimit="8" fill="none" fill-rule="evenodd"/><path d="M0 0 83.3597 113.658" stroke="#000000" stroke-width="2" stroke-miterlimit="8" fill="none" fill-rule="evenodd" transform="matrix(-1 0 0 1 1154.36 199)"/><path d="M1172 205 1192.39 314.534" stroke="#000000" stroke-width="2" stroke-miterlimit="8" fill="none" fill-rule="evenodd"/><path d="M0 0 31.9572 109.534" stroke="#000000" stroke-width="2" stroke-miterlimit="8" fill="none" fill-rule="evenodd" transform="matrix(-1 0 0 1 1162.96 204)"/><path d="M1186 199 1249.57 315.769" stroke="#000000" stroke-width="2" stroke-miterlimit="8" fill="none" fill-rule="evenodd"/><path d="M150.5 472.5C150.5 467.53 154.529 463.5 159.5 463.5 164.471 463.5 168.5 467.53 168.5 472.5 168.5 477.471 164.471 481.5 159.5 481.5 154.529 481.5 150.5 477.471 150.5 472.5Z" stroke="#000000" stroke-width="3" stroke-miterlimit="8" fill="none" fill-rule="evenodd"/><path d="M174.5 472.5C174.5 467.53 178.529 463.5 183.5 463.5 188.471 463.5 192.5 467.53 192.5 472.5 192.5 477.471 188.471 481.5 183.5 481.5 178.529 481.5 174.5 477.471 174.5 472.5Z" stroke="#000000" stroke-width="3" stroke-miterlimit="8" fill="none" fill-rule="evenodd"/><path d="M198.5 472.5C198.5 467.53 202.529 463.5 207.5 463.5 212.471 463.5 216.5 467.53 216.5 472.5 216.5 477.471 212.471 481.5 207.5 481.5 202.529 481.5 198.5 477.471 198.5 472.5Z" stroke="#000000" stroke-width="3" stroke-miterlimit="8" fill="none" fill-rule="evenodd"/><path d="M222.5 472.5C222.5 467.53 226.529 463.5 231.5 463.5 236.471 463.5 240.5 467.53 240.5 472.5 240.5 477.471 236.471 481.5 231.5 481.5 226.529 481.5 222.5 477.471 222.5 472.5Z" stroke="#000000" stroke-width="3" stroke-miterlimit="8" fill="none" fill-rule="evenodd"/><text font-family="SimSun,SimSun_MSFontService,sans-serif" font-weight="400" font-size="32" transform="translate(17.5999 337)">第1<tspan font-size="32" x="48" y="0">行</tspan><tspan font-size="32" x="-1.04431" y="144">第</tspan><tspan font-size="32" x="30.9557" y="144">2</tspan><tspan font-size="32" x="46.9557" y="144">行</tspan></text><path d="M0 0 201.544 0.531234" stroke="#000000" stroke-width="1.33333" stroke-miterlimit="8" stroke-dasharray="4 1.33333" fill="none" fill-rule="evenodd" transform="matrix(-1 0 0 1 308.044 182.5)"/><path d="M0 0 98.1829 0.000104987" stroke="#000000" stroke-width="1.33333" stroke-miterlimit="8" stroke-dasharray="4 1.33333" fill="none" fill-rule="evenodd" transform="matrix(-1 0 0 1 204.683 326.5)"/><path d="M0 0 27.0276 0.000104987" stroke="#000000" stroke-width="1.33333" stroke-miterlimit="8" stroke-dasharray="4 1.33333" fill="none" fill-rule="evenodd" transform="matrix(-1 0 0 1 133.528 468.5)"/><text font-family="Times New Roman,Times New Roman_MSFontService,sans-serif" font-weight="400" font-size="32" transform="translate(341.762 189)">0<tspan font-size="32" x="278.412" y="0">1</tspan><tspan font-size="32" x="538.658" y="6">2</tspan><tspan font-size="32" x="820.26" y="6">3</tspan><tspan font-size="32" x="-98.0975" y="150">0</tspan><tspan font-size="32" x="-38.1457" y="151">1</tspan><tspan font-size="32" x="22.3902" y="151">2</tspan><tspan font-size="32" x="82.2346" y="152">3</tspan><tspan font-size="32" x="180.387" y="150">0</tspan><tspan font-size="32" x="239.232" y="151">1</tspan><tspan font-size="32" x="298.588" y="151">2</tspan><tspan font-size="32" x="359.602" y="153">3</tspan><tspan font-size="32" x="439.55" y="157">0</tspan><tspan font-size="32" x="499.552" y="157">1</tspan><tspan font-size="32" x="558.973" y="157">2</tspan><tspan font-size="32" x="618.764" y="159">3</tspan><tspan font-size="32" x="721.207" y="156">0</tspan><tspan font-size="32" x="781.209" y="156">1</tspan><tspan font-size="32" x="840.63" y="156">2</tspan><tspan font-size="32" x="900.422" y="158">3</tspan></text><path d="M0 0 80.8796 117.186" stroke="#000000" stroke-width="2" stroke-miterlimit="8" fill="none" fill-rule="evenodd" transform="matrix(-1 0 0 1 516.88 346)"/><path d="M0 0 62.9671 114.903" stroke="#000000" stroke-width="2" stroke-miterlimit="8" fill="none" fill-rule="evenodd" transform="matrix(-1 0 0 1 522.967 348)"/><path d="M0 0 44.591 114.903" stroke="#000000" stroke-width="2" stroke-miterlimit="8" fill="none" fill-rule="evenodd" transform="matrix(-1 0 0 1 528.591 348)"/><path d="M0 0 26.6975 117.186" stroke="#000000" stroke-width="2" stroke-miterlimit="8" fill="none" fill-rule="evenodd" transform="matrix(-1 0 0 1 534.698 346)"/><path d="M0 0 46.2003 116.149" stroke="#000000" stroke-width="2" stroke-miterlimit="8" fill="none" fill-rule="evenodd" transform="matrix(-1 0 0 1 578.2 347)"/><path d="M0 0 27.7995 116.149" stroke="#000000" stroke-width="2" stroke-miterlimit="8" fill="none" fill-rule="evenodd" transform="matrix(-1 0 0 1 583.799 347)"/><path d="M0 0 7.3642 113.866" stroke="#000000" stroke-width="2" stroke-miterlimit="8" fill="none" fill-rule="evenodd" transform="matrix(-1 0 0 1 588.364 349)"/><path d="M594 348 604.92 462.903" stroke="#000000" stroke-width="2" stroke-miterlimit="8" fill="none" fill-rule="evenodd"/><path d="M0 0 11.0289 116.123" stroke="#000000" stroke-width="2" stroke-miterlimit="8" fill="none" fill-rule="evenodd" transform="matrix(-1 0 0 1 640.029 347)"/><path d="M645 349 652.546 462.866" stroke="#000000" stroke-width="2" stroke-miterlimit="8" fill="none" fill-rule="evenodd"/><path d="M654 349 671.226 465.963" stroke="#000000" stroke-width="2" stroke-miterlimit="8" fill="none" fill-rule="evenodd"/><path d="M661 346 695.205 465.788" stroke="#000000" stroke-width="2" stroke-miterlimit="8" fill="none" fill-rule="evenodd"/><path d="M701 350 718.922 466.064" stroke="#000000" stroke-width="2" stroke-miterlimit="8" fill="none" fill-rule="evenodd"/><path d="M709 352 743.396 466.131" stroke="#000000" stroke-width="2" stroke-miterlimit="8" fill="none" fill-rule="evenodd"/><path d="M717 350 767.271 466.027" stroke="#000000" stroke-width="2" stroke-miterlimit="8" fill="none" fill-rule="evenodd"/><path d="M724 342 791.366 466.348" stroke="#000000" stroke-width="2" stroke-miterlimit="8" fill="none" fill-rule="evenodd"/><path d="M427.5 472.5C427.5 467.53 431.306 463.5 436 463.5 440.694 463.5 444.5 467.53 444.5 472.5 444.5 477.471 440.694 481.5 436 481.5 431.306 481.5 427.5 477.471 427.5 472.5Z" stroke="#000000" stroke-width="3" stroke-miterlimit="8" fill="none" fill-rule="evenodd"/><path d="M451.5 472.5C451.5 467.53 455.53 463.5 460.5 463.5 465.471 463.5 469.5 467.53 469.5 472.5 469.5 477.471 465.471 481.5 460.5 481.5 455.53 481.5 451.5 477.471 451.5 472.5Z" stroke="#000000" stroke-width="3" stroke-miterlimit="8" fill="none" fill-rule="evenodd"/><path d="M475.5 472.5C475.5 467.53 479.53 463.5 484.5 463.5 489.471 463.5 493.5 467.53 493.5 472.5 493.5 477.471 489.471 481.5 484.5 481.5 479.53 481.5 475.5 477.471 475.5 472.5Z" stroke="#000000" stroke-width="3" stroke-miterlimit="8" fill="none" fill-rule="evenodd"/><path d="M499.5 472.5C499.5 467.53 503.53 463.5 508.5 463.5 513.471 463.5 517.5 467.53 517.5 472.5 517.5 477.471 513.471 481.5 508.5 481.5 503.53 481.5 499.5 477.471 499.5 472.5Z" stroke="#000000" stroke-width="3" stroke-miterlimit="8" fill="none" fill-rule="evenodd"/><path d="M548.5 472.5C548.5 467.53 552.306 463.5 557 463.5 561.694 463.5 565.5 467.53 565.5 472.5 565.5 477.471 561.694 481.5 557 481.5 552.306 481.5 548.5 477.471 548.5 472.5Z" stroke="#000000" stroke-width="3" stroke-miterlimit="8" fill="none" fill-rule="evenodd"/><path d="M572.5 472.5C572.5 467.53 576.306 463.5 581 463.5 585.694 463.5 589.5 467.53 589.5 472.5 589.5 477.471 585.694 481.5 581 481.5 576.306 481.5 572.5 477.471 572.5 472.5Z" stroke="#000000" stroke-width="3" stroke-miterlimit="8" fill="none" fill-rule="evenodd"/><path d="M596.5 472.5C596.5 467.53 600.306 463.5 605 463.5 609.694 463.5 613.5 467.53 613.5 472.5 613.5 477.471 609.694 481.5 605 481.5 600.306 481.5 596.5 477.471 596.5 472.5Z" stroke="#000000" stroke-width="3" stroke-miterlimit="8" fill="none" fill-rule="evenodd"/><path d="M644.5 472.5C644.5 467.53 648.529 463.5 653.5 463.5 658.471 463.5 662.5 467.53 662.5 472.5 662.5 477.471 658.471 481.5 653.5 481.5 648.529 481.5 644.5 477.471 644.5 472.5Z" stroke="#000000" stroke-width="3" stroke-miterlimit="8" fill="none" fill-rule="evenodd"/><path d="M668.5 472.5C668.5 467.53 672.529 463.5 677.5 463.5 682.471 463.5 686.5 467.53 686.5 472.5 686.5 477.471 682.471 481.5 677.5 481.5 672.529 481.5 668.5 477.471 668.5 472.5Z" stroke="#000000" stroke-width="3" stroke-miterlimit="8" fill="none" fill-rule="evenodd"/><path d="M717.5 472.5C717.5 467.53 721.306 463.5 726 463.5 730.694 463.5 734.5 467.53 734.5 472.5 734.5 477.471 730.694 481.5 726 481.5 721.306 481.5 717.5 477.471 717.5 472.5Z" stroke="#000000" stroke-width="3" stroke-miterlimit="8" fill="none" fill-rule="evenodd"/><path d="M741.5 472.5C741.5 467.53 745.306 463.5 750 463.5 754.694 463.5 758.5 467.53 758.5 472.5 758.5 477.471 754.694 481.5 750 481.5 745.306 481.5 741.5 477.471 741.5 472.5Z" stroke="#000000" stroke-width="3" stroke-miterlimit="8" fill="none" fill-rule="evenodd"/><path d="M789.5 472.5C789.5 467.53 793.529 463.5 798.5 463.5 803.471 463.5 807.5 467.53 807.5 472.5 807.5 477.471 803.471 481.5 798.5 481.5 793.529 481.5 789.5 477.471 789.5 472.5Z" stroke="#000000" stroke-width="3" stroke-miterlimit="8" fill="none" fill-rule="evenodd"/><path d="M620.5 472.5C620.5 467.53 624.529 463.5 629.5 463.5 634.471 463.5 638.5 467.53 638.5 472.5 638.5 477.471 634.471 481.5 629.5 481.5 624.529 481.5 620.5 477.471 620.5 472.5Z" stroke="#000000" stroke-width="3" stroke-miterlimit="8" fill="none" fill-rule="evenodd"/><path d="M692.5 472.5C692.5 467.53 696.529 463.5 701.5 463.5 706.471 463.5 710.5 467.53 710.5 472.5 710.5 477.471 706.471 481.5 701.5 481.5 696.529 481.5 692.5 477.471 692.5 472.5Z" stroke="#000000" stroke-width="3" stroke-miterlimit="8" fill="none" fill-rule="evenodd"/><path d="M765.5 472.5C765.5 467.53 769.306 463.5 774 463.5 778.694 463.5 782.5 467.53 782.5 472.5 782.5 477.471 778.694 481.5 774 481.5 769.306 481.5 765.5 477.471 765.5 472.5Z" stroke="#000000" stroke-width="3" stroke-miterlimit="8" fill="none" fill-rule="evenodd"/><path d="M523.5 472.5C523.5 467.53 527.529 463.5 532.5 463.5 537.471 463.5 541.5 467.53 541.5 472.5 541.5 477.471 537.471 481.5 532.5 481.5 527.529 481.5 523.5 477.471 523.5 472.5Z" stroke="#000000" stroke-width="3" stroke-miterlimit="8" fill="none" fill-rule="evenodd"/><path d="M0 0 26.6975 117.186" stroke="#000000" stroke-width="2" stroke-miterlimit="8" fill="none" fill-rule="evenodd" transform="matrix(-1 0 0 1 258.698 347)"/><path d="M684 180 696 180 696 184 684 184ZM700 180 712 180 712 184 700 184ZM716 180 728 180 728 184 716 184ZM732 180 744 180 744 184 732 184ZM748 180 760 180 760 184 748 184ZM764 180 776 180 776 184 764 184ZM780 180 792 180 792 184 780 184ZM796 180 808 180 808 184 796 184ZM812 180 824 180 824 184 812 184ZM828 180 840 180 840 184 828 184ZM839.284 176 851.284 182 839.284 188Z" fill="#235B8D"/><text fill="#235B8D" font-family="SimSun,SimSun_MSFontService,sans-serif" font-weight="400" font-size="27" transform="translate(470.124 533)">回溯：当前子树结点全部访<tspan font-size="27" x="0" y="32">问完毕，接着访问兄弟子树</tspan><tspan fill="#000000" font-size="32" x="-464.901" y="139">第</tspan><tspan fill="#000000" font-size="32" x="-432.901" y="139">N</tspan><tspan fill="#000000" font-size="32" x="-416.901" y="139">-</tspan><tspan fill="#000000" font-size="32" x="-400.901" y="139">1</tspan><tspan fill="#000000" font-size="32" x="-384.901" y="139">行</tspan><tspan fill="#000000" font-size="27" x="-20.0044" y="137">递归出口，筛选符合条件的局面</tspan></text><path d="M717.673 298.772 711.689 288.371 715.156 286.376 721.14 296.778ZM709.694 284.904 703.709 274.503 707.177 272.508 713.161 282.909ZM701.715 271.036 695.73 260.635 699.197 258.64 705.182 269.041ZM693.735 257.167 687.751 246.766 691.218 244.771 697.202 255.173ZM685.756 243.299 679.771 232.898 683.239 230.903 689.223 241.304ZM677.777 229.431 671.792 219.03 675.259 217.035 681.244 227.436ZM669.797 215.562 665.254 207.665 668.721 205.67 673.264 213.568ZM662.784 211.393 662 198 673.185 205.409Z" fill="#235B8D"/><text fill="#235B8D" font-family="SimSun,SimSun_MSFontService,sans-serif" font-weight="400" font-size="27" transform="translate(702.04 242)">回溯</text><path d="M953 470C953 467.791 954.567 466 956.5 466 958.433 466 960 467.791 960 470 960 472.209 958.433 474 956.5 474 954.567 474 953 472.209 953 470Z" fill-rule="evenodd"/><path d="M996 470C996 467.791 997.791 466 1000 466 1002.21 466 1004 467.791 1004 470 1004 472.209 1002.21 474 1000 474 997.791 474 996 472.209 996 470Z" fill-rule="evenodd"/><path d="M1039 470C1039 467.791 1040.57 466 1042.5 466 1044.43 466 1046 467.791 1046 470 1046 472.209 1044.43 474 1042.5 474 1040.57 474 1039 472.209 1039 470Z" fill-rule="evenodd"/><path d="M1082 470C1082 467.791 1083.79 466 1086 466 1088.21 466 1090 467.791 1090 470 1090 472.209 1088.21 474 1086 474 1083.79 474 1082 472.209 1082 470Z" fill-rule="evenodd"/><path d="M1125 470C1125 467.791 1126.57 466 1128.5 466 1130.43 466 1132 467.791 1132 470 1132 472.209 1130.43 474 1128.5 474 1126.57 474 1125 472.209 1125 470Z" fill-rule="evenodd"/><path d="M1168 470C1168 467.791 1169.57 466 1171.5 466 1173.43 466 1175 467.791 1175 470 1175 472.209 1173.43 474 1171.5 474 1169.57 474 1168 472.209 1168 470Z" fill-rule="evenodd"/><path d="M57.9999 527C60.2091 527 61.9999 528.567 61.9999 530.5 61.9999 532.433 60.2091 534 57.9999 534 55.7908 534 53.9999 532.433 53.9999 530.5 53.9999 528.567 55.7908 527 57.9999 527Z" fill-rule="evenodd"/><path d="M57.9999 570C60.2091 570 61.9999 571.567 61.9999 573.5 61.9999 575.433 60.2091 577 57.9999 577 55.7908 577 53.9999 575.433 53.9999 573.5 53.9999 571.567 55.7908 570 57.9999 570Z" fill-rule="evenodd"/><path d="M57.9999 613C60.2091 613 61.9999 614.567 61.9999 616.5 61.9999 618.433 60.2091 620 57.9999 620 55.7908 620 53.9999 618.433 53.9999 616.5 53.9999 614.567 55.7908 613 57.9999 613Z" fill-rule="evenodd"/><path d="M172 409 285.739 439.986" stroke="#FF0000" stroke-width="4" stroke-miterlimit="8" fill="none" fill-rule="evenodd"/><path d="M0 0 115.701 39.633" stroke="#FF0000" stroke-width="4" stroke-miterlimit="8" fill="none" fill-rule="evenodd" transform="matrix(1 0 0 -1 160 447.633)"/><path d="M39.5 30 30.2862 16.9101 32.4894 16.9101C29.6304 6.5676 23.654-1.20644e-05 17.1016-1.20644e-05L27.6952 0C34.2476 0 40.224 6.56761 43.083 16.9101L45.2862 16.9101Z" fill="#FF0000" fill-rule="evenodd" transform="matrix(1 0 0 -1 264 381)"/><path d="M22.3984 1.47523C15.3583 5.49811 10.5936 17.0115 10.5936 30L0 30C-2.99186e-15 13.4315 7.65664 0 17.1016 0 18.9004 0 20.688 0.497859 22.3984 1.47522Z" fill="#CD0000" fill-rule="evenodd" transform="matrix(1 0 0 -1 264 381)"/><text fill="#FF2D2D" font-family="SimSun,SimSun_MSFontService,sans-serif" font-weight="400" font-size="27" transform="translate(313.068 386)">直接访问<tspan font-size="27" x="0" y="29">兄弟结点</tspan><tspan font-size="25" x="-216.407" y="135">剪枝：遍历至当前节</tspan><tspan font-size="25" x="-216.407" y="166">点判定已不能形成可</tspan><tspan font-size="25" x="-216.407" y="196">行局面，立即放弃以</tspan><tspan font-size="25" x="-216.407" y="224">当前节点为根的子树</tspan></text></g></svg>